<svg xmlns:dc="http://purl.org/dc/elements/1.1/" xmlns:cc="http://creativecommons.org/ns#" xmlns:rdf="http://www.w3.org/1999/02/22-rdf-syntax-ns#" xmlns:svg="http://www.w3.org/2000/svg" xmlns="http://www.w3.org/2000/svg" xmlns:sodipodi="http://sodipodi.sourceforge.net/DTD/sodipodi-0.dtd" xmlns:inkscape="http://www.inkscape.org/namespaces/inkscape" version="1.1" x="0px" y="0px" viewBox="0 0 100 125"><g transform="translate(0,-952.36218)"><path style="color:#000000;enable-background:accumulate;" d="m 20,961.36219 0,82.00001 60,0 0,-62.00003 -18,0 a 2.0002002,2.0002002 0 0 1 -2,-2 l 0,-17.99998 -40,0 z m 44,1.99998 0,14 14,0 -14,-14 z m -33,13 16,0 c 1.1046,0 2,0.8954 2,2 0,1.1046 -0.8954,2 -2,2 l -16,0 c -1.1046,0 -2,-0.8954 -2,-2 0,-1.1046 0.8954,-2 2,-2 z m 0,16 38,0 c 1.1046,0 2,0.8954 2,2 0,1.1046 -0.8954,2 -2,2 l -38,0 c -1.1046,0 -2,-0.8954 -2,-2 0,-1.1046 0.8954,-2 2,-2 z m 0,16.00003 38,0 c 1.1046,0 2,0.8954 2,2 0,1.1046 -0.8954,2 -2,2 l -38,0 c -1.1046,0 -2,-0.8954 -2,-2 0,-1.1046 0.8954,-2 2,-2 z m 0,16 38,0 c 1.1046,0 2,0.8954 2,2 0,1.1046 -0.8954,2 -2,2 l -38,0 c -1.1046,0 -2,-0.8954 -2,-2 0,-1.1046 0.8954,-2 2,-2 z" fill="#000000" stroke="none" marker="none" visibility="visible" display="inline" overflow="visible"/></g><text x="0" y="115" fill="#000000" font-size="5px" font-weight="bold" font-family="'Helvetica Neue', Helvetica, Arial-Unicode, Arial, Sans-serif">Created by arjuazka</text><text x="0" y="120" fill="#000000" font-size="5px" font-weight="bold" font-family="'Helvetica Neue', Helvetica, Arial-Unicode, Arial, Sans-serif">from the Noun Project</text></svg>