<svg xmlns="http://www.w3.org/2000/svg" xmlns:xlink="http://www.w3.org/1999/xlink" version="1.1" x="0px" y="0px" viewBox="0 0 50 62.5" enable-background="new 0 0 50 50" xml:space="preserve"><g><path fill-rule="evenodd" clip-rule="evenodd" d="M22.7,26.468l4.752,10.513l-6.22,6.733l-7.46-4.011l-1.253-4.039l-4.615-1.369   L5.258,24.029l8.209-7.335l0.679-6.074l8.848-3.02l-0.029,11.22l2.016,2.47L22.7,26.468z M7.914,43.833l-1.536-3.21l-4.815-1.231   L0,43.109l0.96,2.579l4.75,0.863L7.914,43.833z M3.67,14.688l3.115,0.83l1.372-1.275l0.21-2.673L5.1,10.944l-1.913,1.49   L3.67,14.688z M31.328,46.716l13.042-5.357L50,19.477l-9.06-13.08L26.626,3.284L11.457,8.46l-0.762,6.814L2.003,23.04l3.499,13.577   l4.7,1.395l1.144,3.693l9.142,4.914L31.328,46.716z"/></g><text x="0" y="65" fill="#000000" font-size="5px" font-weight="bold" font-family="'Helvetica Neue', Helvetica, Arial-Unicode, Arial, Sans-serif">Created by Georgiana Ionescu</text><text x="0" y="70" fill="#000000" font-size="5px" font-weight="bold" font-family="'Helvetica Neue', Helvetica, Arial-Unicode, Arial, Sans-serif">from the Noun Project</text></svg>