<svg xmlns="http://www.w3.org/2000/svg" xmlns:xlink="http://www.w3.org/1999/xlink" version="1.1" x="0px" y="0px" viewBox="0 0 100 125" enable-background="new 0 0 100 100" xml:space="preserve"><path d="M65.25,62.062l-4.787-5.588c34.075-34.015,23.755-48.905,21.6-51.33c-0.185-0.207-0.489-0.185-0.663,0.032L50,44.336  L18.601,5.175c-0.174-0.216-0.479-0.238-0.663-0.032c-2.155,2.425-12.476,17.315,21.6,51.33l-4.787,5.588  c-2.036-0.853-4.272-1.325-6.621-1.325c-9.468,0-17.131,7.664-17.131,17.131C10.998,87.336,18.661,95,28.129,95  s17.132-7.664,17.132-17.132c0-3.285-0.924-6.352-2.524-8.958L50,60.428l7.264,8.481c-1.601,2.606-2.524,5.673-2.524,8.958  C54.739,87.336,62.403,95,71.871,95s17.131-7.664,17.131-17.132c0-9.468-7.663-17.131-17.131-17.131  C69.522,60.736,67.286,61.208,65.25,62.062z M28.129,85.888c-4.43,0-8.019-3.589-8.019-8.02c0-4.431,3.589-8.019,8.019-8.019  c4.432,0,8.02,3.588,8.02,8.019C36.148,82.299,32.561,85.888,28.129,85.888z M50,56.182c-2.214,0-4.01-1.796-4.01-4.01  s1.796-4.01,4.01-4.01s4.01,1.796,4.01,4.01S52.214,56.182,50,56.182z M71.871,85.888c-4.432,0-8.02-3.589-8.02-8.02  c0-4.431,3.588-8.019,8.02-8.019c4.43,0,8.019,3.588,8.019,8.019C79.89,82.299,76.301,85.888,71.871,85.888z"/><text x="0" y="115" fill="#000000" font-size="5px" font-weight="bold" font-family="'Helvetica Neue', Helvetica, Arial-Unicode, Arial, Sans-serif">Created by David Khai</text><text x="0" y="120" fill="#000000" font-size="5px" font-weight="bold" font-family="'Helvetica Neue', Helvetica, Arial-Unicode, Arial, Sans-serif">from the Noun Project</text></svg>